<mxfile host="app.diagrams.net" modified="2024-01-01T00:00:00.000Z" agent="AI" version="22.1.0">
  <diagram name="AWS構成図" id="aws-architecture">
    <mxGraphModel dx="1422" dy="794" grid="1" gridSize="10" guides="1" tooltips="1" connect="1" arrows="1" fold="1" page="1" pageScale="1" pageWidth="1200" pageHeight="800">
      <root>
        <mxCell id="0"/>
        <mxCell id="1" parent="0"/>
        
        <!-- インターネット -->
        <mxCell id="internet" value="インターネット" style="ellipse;whiteSpace=wrap;html=1;fillColor=#e1d5e7;strokeColor=#9673a6;" vertex="1" parent="1">
          <mxGeometry x="500" y="50" width="120" height="60" as="geometry"/>
        </mxCell>
        
        <!-- WAF -->
        <mxCell id="waf" value="AWS WAF" style="rounded=1;whiteSpace=wrap;html=1;fillColor=#fff2cc;strokeColor=#d6b656;" vertex="1" parent="1">
          <mxGeometry x="500" y="150" width="120" height="60" as="geometry"/>
        </mxCell>
        
        <!-- ALB -->
        <mxCell id="alb" value="Application&#xa;Load Balancer&#xa;(ALB)" style="rounded=1;whiteSpace=wrap;html=1;fillColor=#dae8fc;strokeColor=#6c8ebf;" vertex="1" parent="1">
          <mxGeometry x="500" y="250" width="120" height="80" as="geometry"/>
        </mxCell>
        
        <!-- VPC -->
        <mxCell id="vpc" value="VPC" style="rounded=0;whiteSpace=wrap;html=1;fillColor=#f8cecc;strokeColor=#b85450;dashed=1;" vertex="1" parent="1">
          <mxGeometry x="200" y="350" width="720" height="400" as="geometry"/>
        </mxCell>
        
        <!-- パブリックサブネット -->
        <mxCell id="public-subnet" value="パブリックサブネット" style="rounded=0;whiteSpace=wrap;html=1;fillColor=#d5e8d4;strokeColor=#82b366;dashed=1;" vertex="1" parent="1">
          <mxGeometry x="220" y="380" width="680" height="80" as="geometry"/>
        </mxCell>
        
        <!-- プライベートサブネット1 -->
        <mxCell id="private-subnet1" value="プライベートサブネット (AZ-1)" style="rounded=0;whiteSpace=wrap;html=1;fillColor=#e1d5e7;strokeColor=#9673a6;dashed=1;" vertex="1" parent="1">
          <mxGeometry x="220" y="480" width="320" height="250" as="geometry"/>
        </mxCell>
        
        <!-- プライベートサブネット2 -->
        <mxCell id="private-subnet2" value="プライベートサブネット (AZ-2)" style="rounded=0;whiteSpace=wrap;html=1;fillColor=#e1d5e7;strokeColor=#9673a6;dashed=1;" vertex="1" parent="1">
          <mxGeometry x="580" y="480" width="320" height="250" as="geometry"/>
        </mxCell>
        
        <!-- EC2インスタンス -->
        <mxCell id="ec2" value="EC2インスタンス" style="rounded=1;whiteSpace=wrap;html=1;fillColor=#fff2cc;strokeColor=#d6b656;" vertex="1" parent="1">
          <mxGeometry x="250" y="520" width="120" height="60" as="geometry"/>
        </mxCell>
        
        <!-- Dockerコンテナ -->
        <mxCell id="docker" value="Docker&#xa;WEBサーバー" style="rounded=1;whiteSpace=wrap;html=1;fillColor=#dae8fc;strokeColor=#6c8ebf;" vertex="1" parent="1">
          <mxGeometry x="250" y="600" width="120" height="60" as="geometry"/>
        </mxCell>
        
        <!-- Aurora Cluster -->
        <mxCell id="aurora" value="Amazon Aurora&#xa;(MySQL/PostgreSQL)" style="rounded=1;whiteSpace=wrap;html=1;fillColor=#f8cecc;strokeColor=#b85450;" vertex="1" parent="1">
          <mxGeometry x="610" y="520" width="140" height="80" as="geometry"/>
        </mxCell>
        
        <!-- Aurora Reader -->
        <mxCell id="aurora-reader" value="Aurora Reader" style="rounded=1;whiteSpace=wrap;html=1;fillColor=#f8cecc;strokeColor=#b85450;" vertex="1" parent="1">
          <mxGeometry x="610" y="620" width="140" height="60" as="geometry"/>
        </mxCell>
        
        <!-- 接続線 -->
        <!-- インターネット → WAF -->
        <mxCell id="conn1" value="" style="endArrow=classic;html=1;rounded=0;" edge="1" parent="1" source="internet" target="waf">
          <mxGeometry width="50" height="50" relative="1" as="geometry">
            <mxPoint x="560" y="120" as="sourcePoint"/>
            <mxPoint x="560" y="140" as="targetPoint"/>
          </mxGeometry>
        </mxCell>
        
        <!-- WAF → ALB -->
        <mxCell id="conn2" value="" style="endArrow=classic;html=1;rounded=0;" edge="1" parent="1" source="waf" target="alb">
          <mxGeometry width="50" height="50" relative="1" as="geometry">
            <mxPoint x="560" y="220" as="sourcePoint"/>
            <mxPoint x="560" y="240" as="targetPoint"/>
          </mxGeometry>
        </mxCell>
        
        <!-- ALB → EC2 -->
        <mxCell id="conn3" value="リバースプロキシ" style="endArrow=classic;html=1;rounded=0;" edge="1" parent="1" source="alb" target="ec2">
          <mxGeometry width="50" height="50" relative="1" as="geometry">
            <mxPoint x="500" y="340" as="sourcePoint"/>
            <mxPoint x="370" y="520" as="targetPoint"/>
          </mxGeometry>
        </mxCell>
        
        <!-- EC2 → Docker -->
        <mxCell id="conn4" value="" style="endArrow=classic;html=1;rounded=0;" edge="1" parent="1" source="ec2" target="docker">
          <mxGeometry width="50" height="50" relative="1" as="geometry">
            <mxPoint x="310" y="590" as="sourcePoint"/>
            <mxPoint x="310" y="590" as="targetPoint"/>
          </mxGeometry>
        </mxCell>
        
        <!-- Docker → Aurora -->
        <mxCell id="conn5" value="DB接続" style="endArrow=classic;html=1;rounded=0;" edge="1" parent="1" source="docker" target="aurora">
          <mxGeometry width="50" height="50" relative="1" as="geometry">
            <mxPoint x="380" y="630" as="sourcePoint"/>
            <mxPoint x="600" y="560" as="targetPoint"/>
          </mxGeometry>
        </mxCell>
        
        <!-- Aurora → Aurora Reader -->
        <mxCell id="conn6" value="レプリケーション" style="endArrow=classic;html=1;rounded=0;" edge="1" parent="1" source="aurora" target="aurora-reader">
          <mxGeometry width="50" height="50" relative="1" as="geometry">
            <mxPoint x="680" y="610" as="sourcePoint"/>
            <mxPoint x="680" y="610" as="targetPoint"/>
          </mxGeometry>
        </mxCell>
        
        <!-- ラベル -->
        <mxCell id="label1" value="HTTPS" style="text;html=1;strokeColor=none;fillColor=none;align=center;verticalAlign=middle;whiteSpace=wrap;rounded=0;" vertex="1" parent="1">
          <mxGeometry x="620" y="120" width="40" height="20" as="geometry"/>
        </mxCell>
        
        <mxCell id="label2" value="HTTP/HTTPS" style="text;html=1;strokeColor=none;fillColor=none;align=center;verticalAlign=middle;whiteSpace=wrap;rounded=0;" vertex="1" parent="1">
          <mxGeometry x="620" y="220" width="80" height="20" as="geometry"/>
        </mxCell>
        
      </root>
    </mxGraphModel>
  </diagram>
</mxfile>